# xmcd
#
# Track frame offsets:
#	150
#	15615
#	29992
#	44955
#	59920
#	74405
#	88152
#	99705
#	113127
#	125850
#	138795
#	152860
#	166015
#	179462
#	192067
#	204897
#	216865
#	230355
#	242857
#	255725
#	269222
#	282072
#	297457
#	312650
#
# Disc length: 4366 seconds
#
# Revision: 1
# Processed by: cddbd v1.5.1PL0 Copyright (c) Steve Scherf et al.
# Submitted via: EasyCDDAExtractor 7.0.9.1
#
DISCID=86110c18
DTITLE=Jimmie Rodgers - The Blue Side Of
DYEAR=1900
DGENRE=Blues
TTITLE0=Blue Yodel #1
TTITLE1=Brakeman's Blues
TTITLE2=In The Jailhouse Now
TTITLE3=Blue Yodel #2
TTITLE4=Blue Yodel #3
TTITLE5=Blue Yodel #4
TTITLE6=Blue Yodel #5
TTITLE7=Train Whistle Blues
TTITLE8=Jimmie's Texas Blues
TTITLE9=Frankie And Johnnie
TTITLE10=Blue Yodel #6
TTITLE11=Anniversary Blue Yodel #7
TTITLE12=Blue Yodel #8 (Muleskinner Blues)
TTITLE13=My Blue Eyed Jane
TTITLE14=Those Gambler's Blues
TTITLE15=Blue Yodel #9
TTITLE16=T. B. Blues
TTITLE17=My Good Gal's Gone
TTITLE18=Blue Yodel #10
TTITLE19=Blue Yodel #11
TTITLE20=Peach Pickin' Time In Georgia
TTITLE21=Gambling Bar Room Blues
TTITLE22=Blue Yodel #12
TTITLE23=Jommie Rodgers' Last Blue Yodel
EXTD=
EXTT0=
EXTT1=
EXTT2=
EXTT3=
EXTT4=
EXTT5=
EXTT6=
EXTT7=
EXTT8=
EXTT9=
EXTT10=
EXTT11=
EXTT12=
EXTT13=
EXTT14=
EXTT15=
EXTT16=
EXTT17=
EXTT18=
EXTT19=
EXTT20=
EXTT21=
EXTT22=
EXTT23=
PLAYORDER=
